<svg data-v-e24b3c4c="" width="20" height="20" viewBox="0 0 20 20" fill="none" xmlns="http://www.w3.org/2000/svg" class="mr-12 mt-4"><path data-v-e24b3c4c="" d="M17.5006 4.16667C16.5756 3.875 15.559 3.75 14.584 3.75C12.959 3.75 11.209 4.08333 10.0007 5C8.79232 4.08333 7.04232 3.75 5.41732 3.75C3.79232 3.75 2.04232 4.08333 0.833984 5V17.9167C2.04232 17 3.79232 16.6667 5.41732 16.6667C7.04232 16.6667 8.79232 17 10.0007 17.9167C11.209 17 12.959 16.6667 14.584 16.6667C15.559 16.6667 16.5756 16.7917 17.5006 17.0833C18.1256 17.2917 18.6673 17.5417 19.1673 17.9167V5C18.6673 4.625 18.1256 4.375 17.5006 4.16667ZM17.5006 15.4167C16.584 15.125 15.584 15 14.584 15C13.1673 15 11.1257 15.5417 10.0007 16.25V6.66667C11.1257 5.95833 13.1673 5.41667 14.584 5.41667C15.584 5.41667 16.584 5.54167 17.5006 5.83333V15.4167Z" fill="#717171" class="fill-dark-on-h"></path> <path data-v-e24b3c4c="" d="M14.584 8.75C15.3173 8.75 16.0256 8.825 16.6673 8.96667V7.7C16.009 7.575 15.3006 7.5 14.584 7.5C13.1673 7.5 11.884 7.74167 10.834 8.19167V9.575C11.7757 9.04167 13.084 8.75 14.584 8.75Z" fill="#717171" class="fill-dark-on-h"></path> <path data-v-e24b3c4c="" d="M10.834 10.4085V11.7918C11.7757 11.2585 13.084 10.9668 14.584 10.9668C15.3173 10.9668 16.0256 11.0418 16.6673 11.1835V9.9168C16.009 9.7918 15.3006 9.7168 14.584 9.7168C13.1673 9.7168 11.884 9.9668 10.834 10.4085Z" fill="#717171" class="fill-dark-on-h"></path> <path data-v-e24b3c4c="" d="M14.584 11.9414C13.1673 11.9414 11.884 12.1831 10.834 12.6331V14.0164C11.7757 13.4831 13.084 13.1914 14.584 13.1914C15.3173 13.1914 16.0256 13.2664 16.6673 13.4081V12.1414C16.009 12.0081 15.3006 11.9414 14.584 11.9414Z" fill="#717171" class="fill-dark-on-h"></path></svg>