<svg width="16" height="16" viewBox="0 0 16 16" fill="none" xmlns="http://www.w3.org/2000/svg" class="absolute left-22 top-16"><path d="M15.0241 11.7476L12.7865 10.0693C13.3459 9.11035 13.5856 7.99153 13.5856 6.7928C13.5856 3.03678 10.5488 0 6.7928 0C3.03678 0 0 3.03678 0 6.79277C0 10.5488 3.03678 13.5856 6.7928 13.5856C7.99153 13.5856 9.03043 13.2659 10.0693 12.7864L11.7476 15.0241C12.6266 16.1429 14.3048 16.3027 15.3437 15.2638C16.3027 14.3048 16.2228 12.6266 15.0241 11.7476ZM6.7928 11.9873C3.91585 11.9873 1.59831 9.66975 1.59831 6.7928C1.59831 3.91585 3.91585 1.59831 6.7928 1.59831C9.66975 1.59831 11.9873 3.91585 11.9873 6.79277C11.9873 9.66969 9.66975 11.9873 6.7928 11.9873Z" fill="#717171"></path></svg>